# MagicaVoxel @ Ephtracy

# group
o 

# material
mtllib Target.mtl
usemtl palette

# normals
vn -1 0 0
vn 1 0 0
vn 0 0 1
vn 0 0 -1
vn 0 -1 0
vn 0 1 0

# texcoords
vt 0.0214844 0.5
vt 0.0917969 0.5
vt 0.841797 0.5
vt 0.919922 0.5

# verts
v -0.5 0.2 -0.4
v -0.5 0.2 -0.5
v -0.5 0.4 -0.4
v -0.5 0.4 -0.5
v -0.5 0.6 -0.4
v -0.5 0.6 -0.5
v -0.5 0.8 -0.4
v -0.5 0.8 -0.5
v -0.4 0.1 -0.4
v -0.4 0.1 -0.5
v -0.4 0.2 -0.4
v -0.4 0.2 -0.5
v -0.4 0.8 -0.4
v -0.4 0.8 -0.5
v -0.4 0.9 -0.4
v -0.4 0.9 -0.5
v -0.3 0 -0.4
v -0.3 0 -0.5
v -0.3 0.1 -0.4
v -0.3 0.1 -0.5
v -0.3 0.9 -0.4
v -0.3 0.9 -0.5
v -0.3 1 -0.4
v -0.3 1 -0.5
v 0.3 0 -0.4
v 0.3 0 -0.5
v 0.3 0.1 -0.4
v 0.3 0.1 -0.5
v 0.3 0.9 -0.4
v 0.3 0.9 -0.5
v 0.3 1 -0.4
v 0.3 1 -0.5
v 0.4 0.1 -0.4
v 0.4 0.1 -0.5
v 0.4 0.2 -0.4
v 0.4 0.2 -0.5
v 0.4 0.8 -0.4
v 0.4 0.8 -0.5
v 0.4 0.9 -0.4
v 0.4 0.9 -0.5
v 0.5 0.2 -0.4
v 0.5 0.2 -0.5
v 0.5 0.4 -0.4
v 0.5 0.4 -0.5
v 0.5 0.6 -0.4
v 0.5 0.6 -0.5
v 0.5 0.8 -0.4
v 0.5 0.8 -0.5
v -0.5 0.2 -0.4
v -0.5 0.4 -0.4
v -0.5 0.6 -0.4
v -0.5 0.8 -0.4
v -0.4 0.1 -0.4
v -0.4 0.2 -0.4
v -0.4 0.3 -0.4
v -0.4 0.4 -0.4
v -0.4 0.6 -0.4
v -0.4 0.7 -0.4
v -0.4 0.8 -0.4
v -0.4 0.9 -0.4
v -0.3 0 -0.4
v -0.3 0.1 -0.4
v -0.3 0.2 -0.4
v -0.3 0.3 -0.4
v -0.3 0.4 -0.4
v -0.3 0.6 -0.4
v -0.3 0.7 -0.4
v -0.3 0.8 -0.4
v -0.3 0.9 -0.4
v -0.3 1 -0.4
v -0.2 0.1 -0.4
v -0.2 0.2 -0.4
v -0.2 0.3 -0.4
v -0.2 0.4 -0.4
v -0.2 0.6 -0.4
v -0.2 0.7 -0.4
v -0.2 0.8 -0.4
v -0.2 0.9 -0.4
v -0.1 0 -0.4
v -0.1 0.1 -0.4
v -0.1 0.2 -0.4
v -0.1 0.3 -0.4
v -0.1 0.4 -0.4
v -0.1 0.6 -0.4
v -0.1 0.7 -0.4
v -0.1 0.8 -0.4
v -0.1 0.9 -0.4
v -0.1 1 -0.4
v 0.1 0 -0.4
v 0.1 0.1 -0.4
v 0.1 0.2 -0.4
v 0.1 0.3 -0.4
v 0.1 0.4 -0.4
v 0.1 0.6 -0.4
v 0.1 0.7 -0.4
v 0.1 0.8 -0.4
v 0.1 0.9 -0.4
v 0.1 1 -0.4
v 0.2 0.1 -0.4
v 0.2 0.2 -0.4
v 0.2 0.3 -0.4
v 0.2 0.4 -0.4
v 0.2 0.6 -0.4
v 0.2 0.7 -0.4
v 0.2 0.8 -0.4
v 0.2 0.9 -0.4
v 0.3 0 -0.4
v 0.3 0.1 -0.4
v 0.3 0.2 -0.4
v 0.3 0.3 -0.4
v 0.3 0.4 -0.4
v 0.3 0.6 -0.4
v 0.3 0.7 -0.4
v 0.3 0.8 -0.4
v 0.3 0.9 -0.4
v 0.3 1 -0.4
v 0.4 0.1 -0.4
v 0.4 0.2 -0.4
v 0.4 0.3 -0.4
v 0.4 0.4 -0.4
v 0.4 0.6 -0.4
v 0.4 0.7 -0.4
v 0.4 0.8 -0.4
v 0.4 0.9 -0.4
v 0.5 0.2 -0.4
v 0.5 0.4 -0.4
v 0.5 0.6 -0.4
v 0.5 0.8 -0.4
v -0.5 0.2 -0.5
v -0.5 0.4 -0.5
v -0.5 0.6 -0.5
v -0.5 0.8 -0.5
v -0.4 0.1 -0.5
v -0.4 0.2 -0.5
v -0.4 0.3 -0.5
v -0.4 0.4 -0.5
v -0.4 0.6 -0.5
v -0.4 0.7 -0.5
v -0.4 0.8 -0.5
v -0.4 0.9 -0.5
v -0.3 0 -0.5
v -0.3 0.1 -0.5
v -0.3 0.2 -0.5
v -0.3 0.3 -0.5
v -0.3 0.4 -0.5
v -0.3 0.6 -0.5
v -0.3 0.7 -0.5
v -0.3 0.8 -0.5
v -0.3 0.9 -0.5
v -0.3 1 -0.5
v -0.2 0.1 -0.5
v -0.2 0.2 -0.5
v -0.2 0.3 -0.5
v -0.2 0.4 -0.5
v -0.2 0.6 -0.5
v -0.2 0.7 -0.5
v -0.2 0.8 -0.5
v -0.2 0.9 -0.5
v -0.1 0 -0.5
v -0.1 0.1 -0.5
v -0.1 0.2 -0.5
v -0.1 0.3 -0.5
v -0.1 0.4 -0.5
v -0.1 0.6 -0.5
v -0.1 0.7 -0.5
v -0.1 0.8 -0.5
v -0.1 0.9 -0.5
v -0.1 1 -0.5
v 0.1 0 -0.5
v 0.1 0.1 -0.5
v 0.1 0.2 -0.5
v 0.1 0.3 -0.5
v 0.1 0.4 -0.5
v 0.1 0.6 -0.5
v 0.1 0.7 -0.5
v 0.1 0.8 -0.5
v 0.1 0.9 -0.5
v 0.1 1 -0.5
v 0.2 0.1 -0.5
v 0.2 0.2 -0.5
v 0.2 0.3 -0.5
v 0.2 0.4 -0.5
v 0.2 0.6 -0.5
v 0.2 0.7 -0.5
v 0.2 0.8 -0.5
v 0.2 0.9 -0.5
v 0.3 0 -0.5
v 0.3 0.1 -0.5
v 0.3 0.2 -0.5
v 0.3 0.3 -0.5
v 0.3 0.4 -0.5
v 0.3 0.6 -0.5
v 0.3 0.7 -0.5
v 0.3 0.8 -0.5
v 0.3 0.9 -0.5
v 0.3 1 -0.5
v 0.4 0.1 -0.5
v 0.4 0.2 -0.5
v 0.4 0.3 -0.5
v 0.4 0.4 -0.5
v 0.4 0.6 -0.5
v 0.4 0.7 -0.5
v 0.4 0.8 -0.5
v 0.4 0.9 -0.5
v 0.5 0.2 -0.5
v 0.5 0.4 -0.5
v 0.5 0.6 -0.5
v 0.5 0.8 -0.5
v -0.3 0 -0.4
v -0.1 0 -0.4
v 0.1 0 -0.4
v 0.3 0 -0.4
v -0.3 0 -0.5
v -0.1 0 -0.5
v 0.1 0 -0.5
v 0.3 0 -0.5
v -0.4 0.1 -0.4
v -0.3 0.1 -0.4
v 0.3 0.1 -0.4
v 0.4 0.1 -0.4
v -0.4 0.1 -0.5
v -0.3 0.1 -0.5
v 0.3 0.1 -0.5
v 0.4 0.1 -0.5
v -0.5 0.2 -0.4
v -0.4 0.2 -0.4
v 0.4 0.2 -0.4
v 0.5 0.2 -0.4
v -0.5 0.2 -0.5
v -0.4 0.2 -0.5
v 0.4 0.2 -0.5
v 0.5 0.2 -0.5
v -0.5 0.8 -0.4
v -0.4 0.8 -0.4
v 0.4 0.8 -0.4
v 0.5 0.8 -0.4
v -0.5 0.8 -0.5
v -0.4 0.8 -0.5
v 0.4 0.8 -0.5
v 0.5 0.8 -0.5
v -0.4 0.9 -0.4
v -0.3 0.9 -0.4
v 0.3 0.9 -0.4
v 0.4 0.9 -0.4
v -0.4 0.9 -0.5
v -0.3 0.9 -0.5
v 0.3 0.9 -0.5
v 0.4 0.9 -0.5
v -0.3 1 -0.4
v -0.1 1 -0.4
v 0.1 1 -0.4
v 0.3 1 -0.4
v -0.3 1 -0.5
v -0.1 1 -0.5
v 0.1 1 -0.5
v 0.3 1 -0.5

# faces
f 3/1/1 2/1/1 1/1/1
f 4/1/1 2/1/1 3/1/1
f 5/2/1 4/2/1 3/2/1
f 6/2/1 4/2/1 5/2/1
f 7/1/1 6/1/1 5/1/1
f 8/1/1 6/1/1 7/1/1
f 11/1/1 10/1/1 9/1/1
f 12/1/1 10/1/1 11/1/1
f 15/1/1 14/1/1 13/1/1
f 16/1/1 14/1/1 15/1/1
f 19/1/1 18/1/1 17/1/1
f 20/1/1 18/1/1 19/1/1
f 23/1/1 22/1/1 21/1/1
f 24/1/1 22/1/1 23/1/1
f 25/1/2 26/1/2 27/1/2
f 27/1/2 26/1/2 28/1/2
f 29/1/2 30/1/2 31/1/2
f 31/1/2 30/1/2 32/1/2
f 33/1/2 34/1/2 35/1/2
f 35/1/2 34/1/2 36/1/2
f 37/1/2 38/1/2 39/1/2
f 39/1/2 38/1/2 40/1/2
f 41/1/2 42/1/2 43/1/2
f 43/1/2 42/1/2 44/1/2
f 43/2/2 44/2/2 45/2/2
f 45/2/2 44/2/2 46/2/2
f 45/1/2 46/1/2 47/1/2
f 47/1/2 46/1/2 48/1/2
f 54/1/3 50/1/3 49/1/3
f 55/1/3 50/1/3 54/1/3
f 56/2/3 51/2/3 50/2/3
f 56/1/3 50/1/3 55/1/3
f 57/1/3 52/1/3 51/1/3
f 57/2/3 51/2/3 56/2/3
f 58/1/3 52/1/3 57/1/3
f 59/1/3 52/1/3 58/1/3
f 62/1/3 55/1/3 54/1/3
f 62/1/3 54/1/3 53/1/3
f 63/1/3 55/1/3 62/1/3
f 64/2/3 56/2/3 55/2/3
f 64/1/3 55/1/3 63/1/3
f 64/2/3 57/2/3 56/2/3
f 64/2/3 58/2/3 57/2/3
f 65/2/3 58/2/3 64/2/3
f 66/2/3 58/2/3 65/2/3
f 67/1/3 60/1/3 59/1/3
f 67/2/3 58/2/3 66/2/3
f 67/1/3 59/1/3 58/1/3
f 68/1/3 60/1/3 67/1/3
f 69/1/3 60/1/3 68/1/3
f 71/1/3 63/1/3 62/1/3
f 71/1/3 62/1/3 61/1/3
f 72/2/3 65/2/3 64/2/3
f 72/1/3 63/1/3 71/1/3
f 72/2/3 64/2/3 63/2/3
f 73/2/3 65/2/3 72/2/3
f 74/4/3 66/4/3 65/4/3
f 74/2/3 65/2/3 73/2/3
f 75/2/3 68/2/3 67/2/3
f 75/4/3 66/4/3 74/4/3
f 75/2/3 67/2/3 66/2/3
f 76/2/3 68/2/3 75/2/3
f 77/1/3 70/1/3 69/1/3
f 77/2/3 68/2/3 76/2/3
f 77/1/3 69/1/3 68/1/3
f 78/1/3 70/1/3 77/1/3
f 79/1/3 71/1/3 61/1/3
f 80/2/3 73/2/3 72/2/3
f 80/1/3 71/1/3 79/1/3
f 80/2/3 72/2/3 71/2/3
f 81/2/3 73/2/3 80/2/3
f 82/4/3 76/4/3 75/4/3
f 82/2/3 73/2/3 81/2/3
f 82/4/3 75/4/3 74/4/3
f 82/4/3 74/4/3 73/4/3
f 83/4/3 76/4/3 82/4/3
f 84/4/3 76/4/3 83/4/3
f 85/2/3 77/2/3 76/2/3
f 85/4/3 76/4/3 84/4/3
f 85/2/3 78/2/3 77/2/3
f 86/2/3 78/2/3 85/2/3
f 87/1/3 70/1/3 78/1/3
f 87/2/3 78/2/3 86/2/3
f 88/1/3 70/1/3 87/1/3
f 89/2/3 81/2/3 80/2/3
f 89/2/3 80/2/3 79/2/3
f 90/2/3 81/2/3 89/2/3
f 91/4/3 83/4/3 82/4/3
f 91/2/3 81/2/3 90/2/3
f 91/4/3 82/4/3 81/4/3
f 92/4/3 83/4/3 91/4/3
f 93/3/3 84/3/3 83/3/3
f 93/4/3 83/4/3 92/4/3
f 94/4/3 86/4/3 85/4/3
f 94/3/3 84/3/3 93/3/3
f 94/4/3 85/4/3 84/4/3
f 95/4/3 86/4/3 94/4/3
f 96/2/3 88/2/3 87/2/3
f 96/4/3 86/4/3 95/4/3
f 96/2/3 87/2/3 86/2/3
f 97/2/3 88/2/3 96/2/3
f 98/2/3 88/2/3 97/2/3
f 99/2/3 92/2/3 91/2/3
f 99/1/3 90/1/3 89/1/3
f 99/2/3 91/2/3 90/2/3
f 100/2/3 92/2/3 99/2/3
f 101/4/3 93/4/3 92/4/3
f 101/2/3 92/2/3 100/2/3
f 101/4/3 95/4/3 94/4/3
f 101/4/3 94/4/3 93/4/3
f 102/4/3 95/4/3 101/4/3
f 103/4/3 95/4/3 102/4/3
f 104/2/3 97/2/3 96/2/3
f 104/4/3 95/4/3 103/4/3
f 104/2/3 96/2/3 95/2/3
f 105/2/3 97/2/3 104/2/3
f 106/1/3 98/1/3 97/1/3
f 106/2/3 97/2/3 105/2/3
f 107/1/3 100/1/3 99/1/3
f 107/1/3 99/1/3 89/1/3
f 108/1/3 100/1/3 107/1/3
f 109/2/3 102/2/3 101/2/3
f 109/1/3 100/1/3 108/1/3
f 109/2/3 101/2/3 100/2/3
f 110/2/3 102/2/3 109/2/3
f 111/4/3 103/4/3 102/4/3
f 111/2/3 102/2/3 110/2/3
f 112/2/3 105/2/3 104/2/3
f 112/4/3 103/4/3 111/4/3
f 112/2/3 104/2/3 103/2/3
f 113/2/3 105/2/3 112/2/3
f 114/1/3 106/1/3 105/1/3
f 114/2/3 105/2/3 113/2/3
f 115/1/3 98/1/3 106/1/3
f 115/1/3 106/1/3 114/1/3
f 116/1/3 98/1/3 115/1/3
f 117/1/3 110/1/3 109/1/3
f 117/1/3 109/1/3 108/1/3
f 118/1/3 110/1/3 117/1/3
f 119/2/3 113/2/3 112/2/3
f 119/1/3 110/1/3 118/1/3
f 119/2/3 111/2/3 110/2/3
f 119/2/3 112/2/3 111/2/3
f 120/2/3 113/2/3 119/2/3
f 121/2/3 113/2/3 120/2/3
f 122/1/3 114/1/3 113/1/3
f 122/2/3 113/2/3 121/2/3
f 122/1/3 115/1/3 114/1/3
f 123/1/3 115/1/3 122/1/3
f 124/1/3 115/1/3 123/1/3
f 125/1/3 120/1/3 119/1/3
f 125/1/3 119/1/3 118/1/3
f 126/2/3 121/2/3 120/2/3
f 126/1/3 120/1/3 125/1/3
f 127/1/3 123/1/3 122/1/3
f 127/2/3 121/2/3 126/2/3
f 127/1/3 122/1/3 121/1/3
f 128/1/3 123/1/3 127/1/3
f 129/1/4 130/1/4 134/1/4
f 134/1/4 130/1/4 135/1/4
f 130/2/4 131/2/4 136/2/4
f 135/1/4 130/1/4 136/1/4
f 131/1/4 132/1/4 137/1/4
f 136/2/4 131/2/4 137/2/4
f 137/1/4 132/1/4 138/1/4
f 138/1/4 132/1/4 139/1/4
f 134/1/4 135/1/4 142/1/4
f 133/1/4 134/1/4 142/1/4
f 142/1/4 135/1/4 143/1/4
f 135/2/4 136/2/4 144/2/4
f 143/1/4 135/1/4 144/1/4
f 136/2/4 137/2/4 144/2/4
f 137/2/4 138/2/4 144/2/4
f 144/2/4 138/2/4 145/2/4
f 145/2/4 138/2/4 146/2/4
f 139/1/4 140/1/4 147/1/4
f 146/2/4 138/2/4 147/2/4
f 138/1/4 139/1/4 147/1/4
f 147/1/4 140/1/4 148/1/4
f 148/1/4 140/1/4 149/1/4
f 142/1/4 143/1/4 151/1/4
f 141/1/4 142/1/4 151/1/4
f 144/2/4 145/2/4 152/2/4
f 151/1/4 143/1/4 152/1/4
f 143/2/4 144/2/4 152/2/4
f 152/2/4 145/2/4 153/2/4
f 145/4/4 146/4/4 154/4/4
f 153/2/4 145/2/4 154/2/4
f 147/2/4 148/2/4 155/2/4
f 154/4/4 146/4/4 155/4/4
f 146/2/4 147/2/4 155/2/4
f 155/2/4 148/2/4 156/2/4
f 149/1/4 150/1/4 157/1/4
f 156/2/4 148/2/4 157/2/4
f 148/1/4 149/1/4 157/1/4
f 157/1/4 150/1/4 158/1/4
f 141/1/4 151/1/4 159/1/4
f 152/2/4 153/2/4 160/2/4
f 159/1/4 151/1/4 160/1/4
f 151/2/4 152/2/4 160/2/4
f 160/2/4 153/2/4 161/2/4
f 155/4/4 156/4/4 162/4/4
f 161/2/4 153/2/4 162/2/4
f 154/4/4 155/4/4 162/4/4
f 153/4/4 154/4/4 162/4/4
f 162/4/4 156/4/4 163/4/4
f 163/4/4 156/4/4 164/4/4
f 156/2/4 157/2/4 165/2/4
f 164/4/4 156/4/4 165/4/4
f 157/2/4 158/2/4 165/2/4
f 165/2/4 158/2/4 166/2/4
f 158/1/4 150/1/4 167/1/4
f 166/2/4 158/2/4 167/2/4
f 167/1/4 150/1/4 168/1/4
f 160/2/4 161/2/4 169/2/4
f 159/2/4 160/2/4 169/2/4
f 169/2/4 161/2/4 170/2/4
f 162/4/4 163/4/4 171/4/4
f 170/2/4 161/2/4 171/2/4
f 161/4/4 162/4/4 171/4/4
f 171/4/4 163/4/4 172/4/4
f 163/3/4 164/3/4 173/3/4
f 172/4/4 163/4/4 173/4/4
f 165/4/4 166/4/4 174/4/4
f 173/3/4 164/3/4 174/3/4
f 164/4/4 165/4/4 174/4/4
f 174/4/4 166/4/4 175/4/4
f 167/2/4 168/2/4 176/2/4
f 175/4/4 166/4/4 176/4/4
f 166/2/4 167/2/4 176/2/4
f 176/2/4 168/2/4 177/2/4
f 177/2/4 168/2/4 178/2/4
f 171/2/4 172/2/4 179/2/4
f 169/1/4 170/1/4 179/1/4
f 170/2/4 171/2/4 179/2/4
f 179/2/4 172/2/4 180/2/4
f 172/4/4 173/4/4 181/4/4
f 180/2/4 172/2/4 181/2/4
f 174/4/4 175/4/4 181/4/4
f 173/4/4 174/4/4 181/4/4
f 181/4/4 175/4/4 182/4/4
f 182/4/4 175/4/4 183/4/4
f 176/2/4 177/2/4 184/2/4
f 183/4/4 175/4/4 184/4/4
f 175/2/4 176/2/4 184/2/4
f 184/2/4 177/2/4 185/2/4
f 177/1/4 178/1/4 186/1/4
f 185/2/4 177/2/4 186/2/4
f 179/1/4 180/1/4 187/1/4
f 169/1/4 179/1/4 187/1/4
f 187/1/4 180/1/4 188/1/4
f 181/2/4 182/2/4 189/2/4
f 188/1/4 180/1/4 189/1/4
f 180/2/4 181/2/4 189/2/4
f 189/2/4 182/2/4 190/2/4
f 182/4/4 183/4/4 191/4/4
f 190/2/4 182/2/4 191/2/4
f 184/2/4 185/2/4 192/2/4
f 191/4/4 183/4/4 192/4/4
f 183/2/4 184/2/4 192/2/4
f 192/2/4 185/2/4 193/2/4
f 185/1/4 186/1/4 194/1/4
f 193/2/4 185/2/4 194/2/4
f 186/1/4 178/1/4 195/1/4
f 194/1/4 186/1/4 195/1/4
f 195/1/4 178/1/4 196/1/4
f 189/1/4 190/1/4 197/1/4
f 188/1/4 189/1/4 197/1/4
f 197/1/4 190/1/4 198/1/4
f 192/2/4 193/2/4 199/2/4
f 198/1/4 190/1/4 199/1/4
f 190/2/4 191/2/4 199/2/4
f 191/2/4 192/2/4 199/2/4
f 199/2/4 193/2/4 200/2/4
f 200/2/4 193/2/4 201/2/4
f 193/1/4 194/1/4 202/1/4
f 201/2/4 193/2/4 202/2/4
f 194/1/4 195/1/4 202/1/4
f 202/1/4 195/1/4 203/1/4
f 203/1/4 195/1/4 204/1/4
f 199/1/4 200/1/4 205/1/4
f 198/1/4 199/1/4 205/1/4
f 200/2/4 201/2/4 206/2/4
f 205/1/4 200/1/4 206/1/4
f 202/1/4 203/1/4 207/1/4
f 206/2/4 201/2/4 207/2/4
f 201/1/4 202/1/4 207/1/4
f 207/1/4 203/1/4 208/1/4
f 213/1/5 210/1/5 209/1/5
f 214/2/5 211/2/5 210/2/5
f 214/1/5 210/1/5 213/1/5
f 215/1/5 212/1/5 211/1/5
f 215/2/5 211/2/5 214/2/5
f 216/1/5 212/1/5 215/1/5
f 221/1/5 218/1/5 217/1/5
f 222/1/5 218/1/5 221/1/5
f 223/1/5 220/1/5 219/1/5
f 224/1/5 220/1/5 223/1/5
f 229/1/5 226/1/5 225/1/5
f 230/1/5 226/1/5 229/1/5
f 231/1/5 228/1/5 227/1/5
f 232/1/5 228/1/5 231/1/5
f 233/1/6 234/1/6 237/1/6
f 237/1/6 234/1/6 238/1/6
f 235/1/6 236/1/6 239/1/6
f 239/1/6 236/1/6 240/1/6
f 241/1/6 242/1/6 245/1/6
f 245/1/6 242/1/6 246/1/6
f 243/1/6 244/1/6 247/1/6
f 247/1/6 244/1/6 248/1/6
f 249/1/6 250/1/6 253/1/6
f 250/2/6 251/2/6 254/2/6
f 253/1/6 250/1/6 254/1/6
f 251/1/6 252/1/6 255/1/6
f 254/2/6 251/2/6 255/2/6
f 255/1/6 252/1/6 256/1/6
